<?xml version="1.0" encoding="UTF-8"?>
<svg width="494px" height="137px" viewBox="0 0 494 137" version="1.1" xmlns="http://www.w3.org/2000/svg" xmlns:xlink="http://www.w3.org/1999/xlink">
    <!-- Generator: Sketch 50.2 (55047) - http://www.bohemiancoding.com/sketch -->
    <title>tereos</title>
    <desc>Created with Sketch.</desc>
    <defs></defs>
    <g id="Page-1" stroke="none" stroke-width="1" fill="none" fill-rule="evenodd">
        <g id="tereos" fill-rule="nonzero">
            <circle id="Oval" fill="#FFFFFF" cx="67.87" cy="68.45" r="67.8"></circle>
            <path d="M67.87,18.83 C78.1804992,12.8983586 89.8650163,9.77122464 101.76,9.76 C80.7966425,-2.35034962 54.9633575,-2.35034962 34,9.76 C45.8958881,9.77426694 57.5804644,12.9048645 67.89,18.84" id="Shape" fill="#2A7BBB"></path>
            <path d="M9.16,34.56 C21.0589381,34.541116 32.7511138,37.6702996 43.05,43.63 C48.9879571,33.3198383 57.5474453,24.7638001 67.86,18.83 C57.5581417,12.9038519 45.8847477,9.77692684 34,9.76 C23.6952028,15.7141079 15.1307074,24.2648119 9.16,34.56" id="Shape" fill="#82B1D7"></path>
            <path d="M43.05,43.63 C32.7511138,37.6702996 21.0589381,34.541116 9.16,34.56 C3.1933091,44.8569391 0.0571929605,56.5492357 0.07,68.45 C11.9750061,68.4389416 23.6709174,71.578552 33.97,77.55 C33.9480612,65.6443435 37.0773331,53.9449378 43.04,43.64" id="Shape" fill="#C0D8EB"></path>
            <path d="M43.08,111.45 C37.1361881,101.139453 33.9986037,89.4510894 33.98,77.55 C23.6809174,71.578552 11.9850061,68.4389416 0.0799683352,68.4499709 C0.068465981,80.3550686 3.20810903,92.0511015 9.18,102.35 C21.0810275,102.36907 32.7692733,105.506623 43.08,111.45" id="Shape" fill="#FFFFFF"></path>
            <path d="M67.87,18.83 C78.1828461,24.7634196 86.7424233,33.3195467 92.68,43.63 C102.978886,37.6702996 114.671062,34.541116 126.57,34.56 C120.607959,24.268326 112.054077,15.7178912 101.76,9.76 C89.8641119,9.77426694 78.1795356,12.9048645 67.87,18.84" id="Shape" fill="#82B1D7"></path>
            <path d="M135.66,68.45 C135.672807,56.5492357 132.536691,44.8569391 126.57,34.56 C114.671062,34.541116 102.978886,37.6702996 92.68,43.63 C98.6422238,53.9351214 101.771463,65.6344055 101.75,77.54 C112.048898,71.568109 123.744931,68.428466 135.65,68.44" id="Shape" fill="#C0D8EB"></path>
            <path d="M67.87,68.46 C73.8037581,58.1388243 82.3636091,49.572073 92.68,43.63 C86.7416627,33.3201298 78.1822634,24.7641804 67.87,18.83 C57.5580279,24.7645607 48.9987174,33.3204212 43.06,43.63 C53.3763909,49.572073 61.9362419,58.1388243 67.87,68.46" id="Shape" fill="#C0D8EB"></path>
            <path d="M58.79,102.38 C58.7972639,90.4781723 61.9245479,78.786199 67.86,68.47 C61.9266229,58.1485326 53.3666829,49.5816922 43.05,43.64 C37.0960275,53.9439501 33.9737484,65.6395594 34,77.54 C44.2978765,83.5061854 52.8521146,92.0673193 58.81,102.37" id="Shape" fill="#FFFFFF"></path>
            <path d="M67.87,68.46 C73.8050174,78.7763786 76.9322697,90.4682338 76.94,102.37 C82.8986312,92.0678918 91.4526966,83.5069308 101.75,77.54 C101.771463,65.6344055 98.6422238,53.9351214 92.68,43.63 C82.3636091,49.572073 73.8037581,58.1388243 67.87,68.46" id="Shape" fill="#FFFFFF"></path>
            <path d="M92.66,111.45 C102.973486,105.5045 114.665519,102.366856 126.57,102.35 C132.537952,92.0499435 135.674097,80.3540927 135.660047,68.4499709 C123.754994,68.4389416 112.059083,71.578552 101.76,77.55 C101.742211,89.4543576 98.6046309,101.146154 92.66,111.46" id="Shape" fill="#FFFFFF"></path>
            <path d="M34,77.54 C44.2975899,83.5065581 52.8517416,92.0676056 58.81,102.37 C52.8517416,92.0676056 44.2975899,83.5065581 34,77.54" id="Shape" fill="#ED7608"></path>
            <g id="Group" style="mix-blend-mode: multiply;" transform="translate(58.000000, 68.000000)" fill="#FAB900">
                <path d="M9.87,0.49 C3.93498261,10.8063786 0.807730294,22.4982338 0.8,34.4 C6.75585073,44.6932012 9.88488122,56.3779049 9.87,68.27 C9.85511878,56.3779049 12.9841493,44.6932012 18.94,34.4 C18.9322697,22.4982338 15.8050174,10.8063786 9.87,0.49 Z" id="Shape"></path>
                <path d="M9.87005283,68.26 C9.88488122,56.3679049 6.75585073,44.6832012 0.799947167,34.39 C0.78511878,46.2820951 3.91414927,57.9667988 9.87005283,68.26 Z" id="Shape"></path>
                <path d="M9.86994717,68.26 C15.8262929,57.9669822 18.9553558,46.2821573 18.9400562,34.39 C12.9841493,44.6832012 9.85511878,56.3679049 9.86994717,68.26 Z" id="Shape"></path>
            </g>
            <path d="M76.94,102.38 C70.985852,112.670267 67.8568818,124.351295 67.8699589,136.24 C78.1739346,130.306161 86.7261606,121.753935 92.66,111.45 C98.6033775,101.139273 101.74093,89.4510275 101.76,77.55 C91.4621235,83.5161854 82.9078854,92.0773193 76.95,102.38" id="Shape" fill="#EB7805" style="mix-blend-mode: multiply;"></path>
            <path d="M67.87,136.24 C67.8831182,124.351295 64.754148,112.670267 58.8,102.38 C52.8458921,92.0752028 44.2951881,83.5107074 34,77.54 C34.0190698,89.4410275 37.1566225,101.129273 43.1,111.44 C49.0345988,121.743352 57.5866475,130.295401 67.89,136.23 L67.87,136.24 Z" id="Shape" fill="#EB7805" style="mix-blend-mode: multiply;"></path>
            <path d="M92.66,111.48 C82.3563565,117.414219 73.8042192,125.966357 67.87,136.27 C92.083537,136.262041 114.456092,123.345416 126.57,102.38 C114.665519,102.396856 102.973486,105.5345 92.66,111.48 Z" id="Shape" fill="#D20A0F" style="mix-blend-mode: multiply;"></path>
            <path d="M67.87,136.27 C61.9357808,125.966357 53.3836435,117.414219 43.08,111.48 C32.7694532,105.536188 21.0810894,102.398604 9.18,102.38 C21.2906128,123.343832 43.6594836,136.26053 67.87,136.27 Z" id="Shape" fill="#D20A0F" style="mix-blend-mode: multiply;"></path>
            <path d="M376,78.89 C376,57.69 363.44,48.7 347.78,48.7 C328.87,48.7 317.64,63.01 317.64,79.5 C317.64,102.02 334.3,110.95 349.9,110.95 C359.061864,111.070513 367.964712,107.910179 375,102.04 L369.45,92.89 C363.824472,97.1371035 356.926568,99.354161 349.88,99.18 C338.09,99.07 331.46,90.02 331.01,84.06 L375.72,84.06 C376.015855,82.3536215 376.109835,80.6183502 376,78.89 Z M331.41,73.71 C331.41,73.71 332.89,61.02 348.11,61.02 C361.98,61.02 362.93,73.71 362.93,73.71 L331.41,73.71 Z" id="Shape" fill="#D20A0F"></path>
            <path d="M274.33,78.89 C274.33,57.69 261.77,48.7 246.11,48.7 C227.2,48.7 215.97,63.01 215.97,79.5 C215.97,102.02 232.63,110.95 248.23,110.95 C257.374735,111.058551 266.257832,107.898934 273.28,102.04 L267.73,92.89 C262.104472,97.1371035 255.206568,99.354161 248.16,99.18 C236.37,99.07 229.74,90.02 229.29,84.06 L274,84.06 C274.31258,82.3555975 274.423343,80.6203125 274.33,78.89 Z M229.74,73.71 C229.74,73.71 231.22,61.02 246.44,61.02 C260.31,61.02 261.26,73.71 261.26,73.71 L229.74,73.71 Z" id="Shape" fill="#D20A0F"></path>
            <path d="M282.39,110.29 L295.89,110.29 L295.89,75.9 C295.89,66.67 301.95,60.9 309.98,60.9 C311.923026,60.9909312 313.854039,61.255316 315.75,61.69 L319.57,50.06 C317.144693,49.3989271 314.651937,49.0164584 312.14,48.92 C308.79,48.92 300.57,49.84 295.69,57.19 C295.69,57.19 293.75,49.38 286.15,49.38 L282.38,49.38 L282.39,110.29 Z" id="Shape" fill="#D20A0F"></path>
            <path d="M486.22,64.96 L491.31,55.91 C485.422057,51.2828125 478.158503,48.7525336 470.67,48.72 C458.23,48.72 448.79,55.22 448.79,66.44 C448.79,86.02 480.47,82.44 480.47,93.26 C480.47,97.74 474.77,99.59 469.31,99.26 C460.68,98.69 453.23,93.77 453.23,93.77 L447.23,103.51 C447.23,103.51 457.07,110.34 469.23,111.03 C482.1,111.76 493.6,104.54 493.6,93.71 C493.6,81.41 480.22,77.31 475.13,75.37 C470.04,73.43 461.52,71.08 461.52,65.9 C461.52,60.72 468.52,60.12 471.11,60.12 C473.7,60.12 478.79,60.34 486.22,64.96 Z" id="Shape" fill="#D20A0F"></path>
            <path d="M228.72,28.9 L228.72,25.95 L162.47,25.95 L162.47,38.43 L188.47,38.43 L188.47,110.29 L202.67,110.29 L202.67,38.43 L219.15,38.43 C224.413274,38.43 228.68,34.1632737 228.68,28.9" id="Shape" fill="#D20A0F"></path>
            <path d="M413.34,48.71 C400.26,48.71 381.78,56.87 381.78,79.84 C381.78,102.81 400.25,110.97 413.34,110.97 C426.43,110.97 444.9,102.81 444.9,79.84 C444.9,56.87 426.42,48.71 413.34,48.71 Z M413.34,98.71 C401.81,98.71 395.8,89.46 395.8,79.88 C395.8,70.3 401.8,61.05 413.34,61.05 C424.88,61.05 430.88,70.3 430.88,79.88 C430.88,89.46 424.87,98.66 413.34,98.66 L413.34,98.71 Z" id="Shape" fill="#D20A0F"></path>
        </g>
    </g>
</svg>